<svg xmlns="http://www.w3.org/2000/svg" id="Layer_2" data-name="Layer 2" viewBox="0 0 1201.16 1201.15"><defs><style>      .cls-1 {        fill: #448beb;        stroke-width: 0px;      }    </style></defs><g id="Layer_1-2" data-name="Layer 1"><path class="cls-1" d="m1201.16,600.58c0,331.72-268.86,600.58-600.58,600.58l16.68-82.96c130.58-4.13,248.9-56.59,337.71-139.99l-80.68-53.74c-65.29,55.31-147.54,91.24-237.92,98.65l11.98-60.16c65.29-8.27,125.31-34.07,175.06-72.41l-141.55-94.23,19.1-95.37,158.24,158.24,41.34,41.34,66.29,66.29s0,0,0,0l57.87,57.88-46.47-69.71c83.39-88.95,135.85-207.27,139.98-337.71l-95.08,18.96c-7.41,90.38-43.34,172.63-98.65,238.06l-33.93-50.89c38.35-49.75,64.15-109.77,72.42-175.05l-166.79,33.36-95.23,19.1-100.36-100.22h600.58Zm-966.23,0h365.65l-100.21-100.22-95.37,19.1-166.79,33.36c8.27-65.29,34.07-125.31,72.42-175.05l-33.93-50.89c-55.31,65.43-91.23,147.68-98.65,238.06l-95.08,18.96c4.13-130.44,56.59-248.76,139.98-337.71l-46.47-69.71,57.88,57.88,66.29,66.29,41.34,41.34,158.38,158.38,19.1-95.37-141.7-94.37c49.89-38.35,109.77-64.15,175.06-72.41l12.11-60.16c-90.38,7.41-172.63,43.34-238.06,98.65l-80.68-53.74c88.95-83.4,207.27-135.85,337.71-139.99L600.58,0C269,0,0,268.85,0,600.58h234.93Zm365.65-365.65v365.65l100.36-100.22,95.23,19.1,94.37-141.7c38.35,49.75,64.15,109.77,72.42,175.05l60.16,12.12c-7.41-90.38-43.34-172.63-98.65-238.06l53.74-80.68c83.39,88.95,135.85,207.27,139.98,337.71l82.97,16.68C1201.16,268.85,932.3,0,600.58,0l16.68,82.96c130.58,4.13,248.9,56.59,337.71,139.99l69.71-46.47-124.16,124.16-41.34,41.34-158.24,158.24-19.1-95.37-33.5-166.64c65.29,8.27,125.31,34.07,175.06,72.41l50.89-33.93c-65.29-55.31-147.54-91.24-237.92-98.65l-19.1-95.08L600.58,0v234.93Zm0,731.3v-365.65l-100.21,100.22,19.1,95.37,33.36,166.79c-65.29-8.27-125.16-34.07-175.06-72.41l-50.89,33.93c65.43,55.31,147.69,91.24,238.06,98.65l18.96,95.08c-130.44-4.13-248.76-56.59-337.71-139.99l-69.71,46.47,57.88-57.88,66.29-66.29,41.34-41.34,158.38-158.38-95.37-19.1-94.37,141.7c-38.35-49.75-64.15-109.77-72.42-175.05l-60.16-12.12c7.41,90.38,43.34,172.63,98.65,238.06l-53.74,80.68c-83.39-88.95-135.85-207.27-139.98-337.71L0,600.58c0,331.72,269,600.58,600.58,600.58v-234.93Z"></path></g></svg>