<?xml version="1.0" encoding="UTF-8"?>
<svg id="Layer_2" xmlns="http://www.w3.org/2000/svg" viewBox="0 0 1352.47 676.24">
  <defs>
    <style>
      .cls-1 {
        fill: #fff;
      }
    </style>
  </defs>
  <g id="Layer_1-2" data-name="Layer_1">
    <path class="cls-1" d="M1259.05,657.46l93.42,18.78C1352.47,302.72,1049.74,0,676.23,0v676.24l113-112.84,107.23,21.51,106.25-159.55c43.18,56.01,72.23,123.59,81.54,197.1l67.74,13.65c-8.35-101.77-48.8-194.38-111.07-268.06l60.51-90.84c93.9,100.15,152.96,233.38,157.62,380.25ZM1013.95,338.52l-46.55,46.55-178.17,178.16-21.51-107.38-37.72-187.63c73.52,9.3,141.09,38.36,197.11,81.53l57.3-38.2c-73.51-62.28-166.13-102.73-267.89-111.07l-21.51-107.06c147.03,4.65,280.25,63.72,380.25,157.62l78.49-52.33-139.8,139.81ZM456.01,584.91l-187.8,37.55c9.31-73.51,38.37-141.09,81.54-197.1l-38.2-57.31c-62.28,73.68-102.73,166.29-111.07,268.06l-107.06,21.35c4.65-146.87,63.72-280.1,157.62-380.25l-52.33-78.5,65.17,65.17,74.63,74.64,224.88,224.88,21.51-107.39-159.55-106.26c56.18-43.17,123.6-72.23,197.11-81.53l13.64-67.74c-101.76,8.34-194.38,48.79-268.05,111.07l-90.85-60.51c100.16-93.9,233.38-152.97,380.25-157.62L676.23,0C302.88,0,0,302.72,0,676.24h676.23l-112.84-112.84-107.38,21.51Z"/>
  </g>
</svg>